<svg width="14" height="14" viewBox="0 0 14 14" fill="none" xmlns="http://www.w3.org/2000/svg">
<g id="vuesax/outline/copy">
<g id="copy">
<path id="Vector" d="M6.4724 13.2721H4.0224C1.74156 13.2721 0.726562 12.2571 0.726562 9.9763V7.5263C0.726562 5.24547 1.74156 4.23047 4.0224 4.23047H6.4724C8.75323 4.23047 9.76823 5.24547 9.76823 7.5263V9.9763C9.76823 12.2571 8.75323 13.2721 6.4724 13.2721ZM4.0224 5.10547C2.21406 5.10547 1.60156 5.71797 1.60156 7.5263V9.9763C1.60156 11.7846 2.21406 12.3971 4.0224 12.3971H6.4724C8.28073 12.3971 8.89323 11.7846 8.89323 9.9763V7.5263C8.89323 5.71797 8.28073 5.10547 6.4724 5.10547H4.0224Z" fill="#13587F"/>
<path id="Vector_2" d="M9.9724 9.77214H9.33073C9.09156 9.77214 8.89323 9.5738 8.89323 9.33464V7.5263C8.89323 5.71797 8.28073 5.10547 6.4724 5.10547H4.66406C4.4249 5.10547 4.22656 4.90714 4.22656 4.66797V4.0263C4.22656 1.74547 5.24156 0.730469 7.5224 0.730469H9.9724C12.2532 0.730469 13.2682 1.74547 13.2682 4.0263V6.4763C13.2682 8.75714 12.2532 9.77214 9.9724 9.77214ZM9.76823 8.89714H9.9724C11.7807 8.89714 12.3932 8.28464 12.3932 6.4763V4.0263C12.3932 2.21797 11.7807 1.60547 9.9724 1.60547H7.5224C5.71406 1.60547 5.10156 2.21797 5.10156 4.0263V4.23047H6.4724C8.75323 4.23047 9.76823 5.24547 9.76823 7.5263V8.89714Z" fill="#13587F"/>
</g>
</g>
</svg>
