<svg width="40" height="40" viewBox="0 0 40 40" fill="none" xmlns="http://www.w3.org/2000/svg">
<g id="checkbox 1">
<g id="Group">
<path id="Vector" fill-rule="evenodd" clip-rule="evenodd" d="M37.8478 5.48815C38.4986 6.13903 38.4986 7.1943 37.8478 7.84518L21.1811 24.5118C20.5303 25.1627 19.4749 25.1627 18.8241 24.5118L13.8241 19.5118C13.1732 18.861 13.1732 17.8057 13.8241 17.1548C14.475 16.504 15.5302 16.504 16.1811 17.1548L20.0026 20.9763L35.4908 5.48815C36.1416 4.83728 37.1969 4.83728 37.8478 5.48815Z" fill="#13587F"/>
<path id="Vector_2" fill-rule="evenodd" clip-rule="evenodd" d="M8.33594 6.66536C7.8939 6.66536 7.46999 6.84096 7.15742 7.15351C6.84487 7.46608 6.66927 7.89 6.66927 8.33203V31.6654C6.66927 32.1074 6.84487 32.5314 7.15742 32.8439C7.46999 33.1564 7.8939 33.332 8.33594 33.332H31.6693C32.1113 33.332 32.5353 33.1564 32.8478 32.8439C33.1603 32.5314 33.3359 32.1074 33.3359 31.6654V19.9987C33.3359 19.0782 34.0821 18.332 35.0026 18.332C35.9231 18.332 36.6693 19.0782 36.6693 19.9987V31.6654C36.6693 32.9915 36.1424 34.2632 35.2048 35.2009C34.2671 36.1385 32.9954 36.6654 31.6693 36.6654H8.33594C7.00985 36.6654 5.73809 36.1385 4.8004 35.2009C3.86272 34.2632 3.33594 32.9915 3.33594 31.6654V8.33203C3.33594 7.00595 3.86272 5.73418 4.8004 4.7965C5.73809 3.85881 7.00985 3.33203 8.33594 3.33203H26.6693C27.5898 3.33203 28.3359 4.07823 28.3359 4.9987C28.3359 5.91916 27.5898 6.66536 26.6693 6.66536H8.33594Z" fill="#13587F"/>
</g>
</g>
</svg>
