<svg width="44" height="44" viewBox="0 0 44 44" fill="none" xmlns="http://www.w3.org/2000/svg">
<g id="vuesax/outline/text-block">
<g id="text-block">
<path id="Vector" d="M27.4974 41.7096H16.4974C6.5424 41.7096 2.28906 37.4563 2.28906 27.5013V16.5013C2.28906 6.5463 6.5424 2.29297 16.4974 2.29297H27.4974C37.4524 2.29297 41.7057 6.5463 41.7057 16.5013V27.5013C41.7057 37.4563 37.4524 41.7096 27.4974 41.7096ZM16.4974 5.04297C8.04573 5.04297 5.03906 8.04964 5.03906 16.5013V27.5013C5.03906 35.953 8.04573 38.9596 16.4974 38.9596H27.4974C35.9491 38.9596 38.9557 35.953 38.9557 27.5013V16.5013C38.9557 8.04964 35.9491 5.04297 27.4974 5.04297H16.4974Z" fill="#13587F"/>
<path id="Vector_2" d="M12.8326 17.6535C12.3376 17.6535 11.8426 17.3785 11.6043 16.9018C11.256 16.2235 11.531 15.3985 12.2093 15.0502C18.3326 11.9885 25.6476 11.9885 31.771 15.0502C32.4493 15.3985 32.7243 16.2235 32.3943 16.9018C32.046 17.5802 31.2393 17.8552 30.5426 17.5252C25.1893 14.8485 18.791 14.8485 13.4376 17.5252C13.2543 17.6168 13.0343 17.6535 12.8326 17.6535Z" fill="#13587F"/>
<path id="Vector_3" d="M22 31.2407C21.2483 31.2407 20.625 30.6174 20.625 29.8657V14.5391C20.625 13.7874 21.2483 13.1641 22 13.1641C22.7517 13.1641 23.375 13.7874 23.375 14.5391V29.8841C23.375 30.6357 22.7517 31.2407 22 31.2407Z" fill="#13587F"/>
</g>
</g>
</svg>
