<svg width="20" height="20" viewBox="0 0 20 20" fill="none" xmlns="http://www.w3.org/2000/svg">
<g id="vuesax/outline/frame">
<g id="frame">
<path id="Vector" d="M10.1341 9.68464C10.1091 9.68464 10.0924 9.68464 10.0674 9.68464C10.0258 9.6763 9.96745 9.6763 9.91745 9.68464C7.50078 9.60964 5.67578 7.70964 5.67578 5.36797C5.67578 2.98464 7.61745 1.04297 10.0008 1.04297C12.3841 1.04297 14.3258 2.98464 14.3258 5.36797C14.3174 7.70964 12.4841 9.60964 10.1591 9.68464C10.1508 9.68464 10.1424 9.68464 10.1341 9.68464ZM10.0008 2.29297C8.30911 2.29297 6.92578 3.6763 6.92578 5.36797C6.92578 7.03464 8.22578 8.3763 9.88411 8.43464C9.92578 8.4263 10.0424 8.4263 10.1508 8.43464C11.7841 8.35964 13.0674 7.01797 13.0758 5.36797C13.0758 3.6763 11.6924 2.29297 10.0008 2.29297Z" fill="#677E9E"/>
<path id="Vector_2" d="M10.1404 18.7904C8.50703 18.7904 6.86536 18.3737 5.6237 17.5404C4.46536 16.7737 3.83203 15.7237 3.83203 14.582C3.83203 13.4404 4.46536 12.382 5.6237 11.607C8.1237 9.9487 12.1737 9.9487 14.657 11.607C15.807 12.3737 16.4487 13.4237 16.4487 14.5654C16.4487 15.707 15.8154 16.7654 14.657 17.5404C13.407 18.3737 11.7737 18.7904 10.1404 18.7904ZM6.31536 12.657C5.51536 13.1904 5.08203 13.8737 5.08203 14.5904C5.08203 15.2987 5.5237 15.982 6.31536 16.507C8.39036 17.8987 11.8904 17.8987 13.9654 16.507C14.7654 15.9737 15.1987 15.2904 15.1987 14.5737C15.1987 13.8654 14.757 13.182 13.9654 12.657C11.8904 11.2737 8.39036 11.2737 6.31536 12.657Z" fill="#677E9E"/>
</g>
</g>
</svg>
