<svg width="24" height="24" viewBox="0 0 24 24" fill="none" xmlns="http://www.w3.org/2000/svg">
<g id="vuesax/outline/arrow-circle-right">
<g id="arrow-circle-right">
<path id="Vector" d="M12 22.75C17.93 22.75 22.75 17.93 22.75 12C22.75 6.07 17.93 1.25 12 1.25C6.07 1.25 1.25 6.07 1.25 12C1.25 17.93 6.07 22.75 12 22.75ZM12 2.75C17.1 2.75 21.25 6.9 21.25 12C21.25 17.1 17.1 21.25 12 21.25C6.9 21.25 2.75 17.1 2.75 12C2.75 6.9 6.9 2.75 12 2.75Z" fill="#13587F"/>
<path id="Vector_2" d="M13.2603 16.2802C13.4503 16.2802 13.6403 16.2102 13.7903 16.0602C14.0803 15.7702 14.0803 15.2902 13.7903 15.0002L10.7903 12.0002L13.7903 9.00016C14.0803 8.71016 14.0803 8.23016 13.7903 7.94016C13.5003 7.65016 13.0203 7.65016 12.7303 7.94016L9.20031 11.4702C8.91031 11.7602 8.91031 12.2402 9.20031 12.5302L12.7303 16.0602C12.8803 16.2102 13.0703 16.2802 13.2603 16.2802Z" fill="#13587F"/>
</g>
</g>
</svg>
