<svg width="20" height="20" viewBox="0 0 20 20" fill="none" xmlns="http://www.w3.org/2000/svg">
<rect x="0.5" y="0.5" width="19" height="19" rx="3.5" stroke="white"/>
<path d="M5.20001 11.2C5.86275 11.2 6.40002 10.6627 6.40002 9.99999C6.40002 9.33724 5.86275 8.79998 5.20001 8.79998C4.53726 8.79998 4 9.33724 4 9.99999C4 10.6627 4.53726 11.2 5.20001 11.2Z" fill="#13587F"/>
<path d="M9.99999 11.2C10.6627 11.2 11.2 10.6627 11.2 9.99999C11.2 9.33724 10.6627 8.79998 9.99999 8.79998C9.33724 8.79998 8.79998 9.33724 8.79998 9.99999C8.79998 10.6627 9.33724 11.2 9.99999 11.2Z" fill="#13587F"/>
<path d="M14.8 11.2C15.4627 11.2 16 10.6627 16 9.99999C16 9.33724 15.4627 8.79998 14.8 8.79998C14.1372 8.79998 13.6 9.33724 13.6 9.99999C13.6 10.6627 14.1372 11.2 14.8 11.2Z" fill="#13587F"/>
</svg>
