<svg width="20" height="20" viewBox="0 0 20 20" fill="none" xmlns="http://www.w3.org/2000/svg">
<g id="vuesax/outline/flash-circle">
<g id="flash-circle">
<path id="Vector" d="M9.9974 18.9596C5.05573 18.9596 1.03906 14.943 1.03906 10.0013C1.03906 5.05964 5.05573 1.04297 9.9974 1.04297C14.9391 1.04297 18.9557 5.05964 18.9557 10.0013C18.9557 14.943 14.9391 18.9596 9.9974 18.9596ZM9.9974 2.29297C5.7474 2.29297 2.28906 5.7513 2.28906 10.0013C2.28906 14.2513 5.7474 17.7096 9.9974 17.7096C14.2474 17.7096 17.7057 14.2513 17.7057 10.0013C17.7057 5.7513 14.2474 2.29297 9.9974 2.29297Z" fill="#292D32"/>
<path id="Vector_2" d="M8.09039 14.8677C7.84873 14.8677 7.66541 14.7844 7.55707 14.7011C7.33207 14.5511 6.9904 14.1677 7.20706 13.3094L7.84874 10.7177L7.08207 10.5261C6.30707 10.3344 6.13207 9.84276 6.09874 9.64276C6.06541 9.44276 6.04874 8.91778 6.69874 8.45944L11.0154 5.46775C11.7404 4.96775 12.2154 5.15108 12.4404 5.30108C12.6654 5.45108 13.0071 5.83445 12.7904 6.69278L12.1487 9.28443L12.9154 9.47608C13.6904 9.66775 13.8654 10.1594 13.8987 10.3677C13.9321 10.576 13.9487 11.0927 13.2987 11.5511L8.98207 14.5427C8.62373 14.7844 8.33206 14.8677 8.09039 14.8677ZM7.59039 9.36775L8.75708 9.65944C9.09041 9.74278 9.29873 10.0844 9.2154 10.4178L8.48206 13.3678L12.4071 10.6428L11.2404 10.3511C10.9071 10.2678 10.6987 9.9261 10.7821 9.59276L11.5154 6.64273L7.59039 9.36775Z" fill="#292D32"/>
</g>
</g>
</svg>
