<svg width="20" height="20" viewBox="0 0 20 20" fill="none" xmlns="http://www.w3.org/2000/svg">
<g id="vuesax/outline/airplane">
<g id="airplane">
<path id="Vector" d="M7.15052 18.7906C6.96719 18.7906 6.77552 18.7573 6.60052 18.6823C6.20885 18.5156 5.90885 18.1906 5.77552 17.7823L5.40885 16.6823C5.24219 16.1823 5.39219 15.5573 5.75885 15.1823L7.65052 13.2823C7.67552 13.2573 7.70885 13.1656 7.70885 13.124V11.0656L3.90885 12.7073C3.40052 12.924 2.88385 12.899 2.49219 12.6406C2.10052 12.3823 1.86719 11.9156 1.86719 11.374V10.299C1.86719 9.48229 2.45052 8.60729 3.19219 8.31562L7.70052 6.36562V3.99896C7.70052 2.99063 8.40885 1.83229 9.30885 1.36562C9.74219 1.14896 10.2422 1.14896 10.6672 1.36562C11.5755 1.83229 12.2839 2.98229 12.2839 3.99062V6.35729L16.8172 8.30729C17.5589 8.62396 18.1255 9.47396 18.1255 10.299V11.374C18.1255 11.924 17.9005 12.3823 17.5005 12.6406C17.1005 12.899 16.5922 12.924 16.0839 12.7156L12.2839 11.074V13.1323C12.2839 13.1656 12.3172 13.249 12.3422 13.274L14.2422 15.1823C14.6089 15.549 14.7589 16.1906 14.5922 16.6823L14.2255 17.7823C14.0839 18.1906 13.7839 18.5156 13.3839 18.674C12.9922 18.8323 12.5589 18.8156 12.1839 18.6323C12.1422 18.6073 12.1005 18.5823 12.0589 18.549L10.1172 16.9156C10.0505 16.8573 9.91719 16.8656 9.85885 16.9156L7.91719 18.549C7.88385 18.5823 7.84219 18.6073 7.80052 18.624C7.60052 18.7406 7.37552 18.7906 7.15052 18.7906ZM7.96719 9.69896C8.15885 9.69896 8.34219 9.74896 8.50052 9.85729C8.79219 10.049 8.95885 10.374 8.95885 10.7573V13.1323C8.95885 13.4906 8.78385 13.9156 8.53385 14.1656L6.64219 16.0656C6.60885 16.1073 6.57552 16.2323 6.59219 16.2823L6.95885 17.3906C6.98385 17.474 7.04219 17.5073 7.07552 17.524C7.10052 17.5323 7.14219 17.549 7.19219 17.5323L9.05885 15.9573C9.58385 15.5073 10.4089 15.5073 10.9339 15.9573L12.7922 17.524C12.8505 17.5323 12.8922 17.524 12.9172 17.5156C12.9505 17.499 13.0172 17.4656 13.0422 17.3823L13.4089 16.2823C13.4255 16.224 13.3922 16.099 13.3589 16.0656L11.4672 14.1656C11.2172 13.9323 11.0339 13.499 11.0339 13.1323V10.7573C11.0339 10.3823 11.1922 10.0573 11.4755 9.86563C11.7589 9.67396 12.1255 9.64896 12.4755 9.79896L16.5755 11.5656C16.7005 11.6156 16.7839 11.6156 16.8089 11.599C16.8339 11.5823 16.8672 11.5073 16.8672 11.374V10.299C16.8672 9.98229 16.6005 9.57396 16.3172 9.45729L11.6672 7.44896C11.3005 7.29062 11.0422 6.89062 11.0422 6.49062V3.99062C11.0422 3.44062 10.6089 2.73229 10.1089 2.48229C10.0422 2.44896 9.95885 2.44896 9.88385 2.48229C9.40052 2.73229 8.95885 3.45729 8.95885 3.99896V6.49896C8.95885 6.89062 8.70052 7.29896 8.33385 7.45729L3.68385 9.46562C3.39219 9.58229 3.12552 9.99062 3.12552 10.299V11.374C3.12552 11.5073 3.15885 11.5823 3.18385 11.599C3.20885 11.6156 3.29219 11.6156 3.41719 11.5656L7.50885 9.79896C7.65885 9.73229 7.81719 9.69896 7.96719 9.69896Z" fill="#292D32"/>
</g>
</g>
</svg>
