<svg width="14" height="13" viewBox="0 0 14 13" fill="none" xmlns="http://www.w3.org/2000/svg">
<g id="caret-down 1">
<path id="Vector" d="M3.6496 4.875H9.71474C9.82203 4.87545 9.92678 4.90765 10.0157 4.96754C10.1047 5.02743 10.1739 5.11231 10.2145 5.21146C10.2552 5.3106 10.2655 5.41955 10.2441 5.52453C10.2227 5.62951 10.1707 5.72581 10.0945 5.80125L7.06734 8.82375C7.01691 8.87452 6.95691 8.91482 6.8908 8.94232C6.82469 8.96982 6.75378 8.98397 6.68217 8.98397C6.61055 8.98397 6.53964 8.96982 6.47353 8.94232C6.40743 8.91482 6.34743 8.87452 6.29699 8.82375L3.26985 5.80125C3.19367 5.72581 3.14161 5.62951 3.12024 5.52453C3.09887 5.41955 3.10917 5.3106 3.14981 5.21146C3.19046 5.11231 3.25964 5.02743 3.3486 4.96754C3.43756 4.90765 3.54231 4.87545 3.6496 4.875Z" fill="black"/>
</g>
</svg>
