<svg width="29" height="29" viewBox="0 0 29 29" fill="none" xmlns="http://www.w3.org/2000/svg">
<g id="vuesax/outline/close-square">
<g id="close-square">
<path id="Vector" d="M11.0829 18.8264C10.8533 18.8264 10.6238 18.7418 10.4425 18.5605C10.0921 18.2101 10.0921 17.6301 10.4425 17.2797L17.2817 10.4405C17.6321 10.0901 18.2121 10.0901 18.5625 10.4405C18.9129 10.791 18.9129 11.371 18.5625 11.7214L11.7233 18.5605C11.5542 18.7418 11.3125 18.8264 11.0829 18.8264Z" fill="#99ACCC"/>
<path id="Vector_2" d="M17.9221 18.8264C17.6925 18.8264 17.4629 18.7418 17.2817 18.5605L10.4425 11.7214C10.0921 11.371 10.0921 10.791 10.4425 10.4405C10.7929 10.0901 11.3729 10.0901 11.7233 10.4405L18.5625 17.2797C18.9129 17.6301 18.9129 18.2101 18.5625 18.5605C18.3812 18.7418 18.1517 18.8264 17.9221 18.8264Z" fill="#99ACCC"/>
<path id="Vector_3" d="M18.1224 27.4889H10.8724C4.31115 27.4889 1.50781 24.6856 1.50781 18.1243V10.8743C1.50781 4.3131 4.31115 1.50977 10.8724 1.50977H18.1224C24.6836 1.50977 27.487 4.3131 27.487 10.8743V18.1243C27.487 24.6856 24.6836 27.4889 18.1224 27.4889ZM10.8724 3.32227C5.30198 3.32227 3.32031 5.30393 3.32031 10.8743V18.1243C3.32031 23.6948 5.30198 25.6764 10.8724 25.6764H18.1224C23.6928 25.6764 25.6745 23.6948 25.6745 18.1243V10.8743C25.6745 5.30393 23.6928 3.32227 18.1224 3.32227H10.8724Z" fill="#99ACCC"/>
</g>
</g>
</svg>
