<svg width="19" height="19" viewBox="0 0 19 19" fill="none" xmlns="http://www.w3.org/2000/svg">
<g id="Frame">
<g id="Group">
<path id="Vector" fill-rule="evenodd" clip-rule="evenodd" d="M16.15 4.75C16.15 4.49804 16.0499 4.25641 15.8717 4.07825C15.6936 3.90009 15.4519 3.8 15.2 3.8H3.79999C3.54804 3.8 3.3064 3.90009 3.12824 4.07825C2.95008 4.25641 2.84999 4.49804 2.84999 4.75C2.84999 5.00195 2.95008 5.24359 3.12824 5.42175C3.3064 5.59991 3.54804 5.7 3.79999 5.7H15.2C15.4519 5.7 15.6936 5.59991 15.8717 5.42175C16.0499 5.24359 16.15 5.00195 16.15 4.75ZM16.15 9.5C16.15 9.24804 16.0499 9.00641 15.8717 8.82825C15.6936 8.65009 15.4519 8.55 15.2 8.55H9.49999C9.24804 8.55 9.0064 8.65009 8.82824 8.82825C8.65008 9.00641 8.54999 9.24804 8.54999 9.5C8.54999 9.75195 8.65008 9.99359 8.82824 10.1718C9.0064 10.3499 9.24804 10.45 9.49999 10.45H15.2C15.4519 10.45 15.6936 10.3499 15.8717 10.1718C16.0499 9.99359 16.15 9.75195 16.15 9.5ZM16.15 14.25C16.15 13.998 16.0499 13.7564 15.8717 13.5782C15.6936 13.4001 15.4519 13.3 15.2 13.3H3.79999C3.54804 13.3 3.3064 13.4001 3.12824 13.5782C2.95008 13.7564 2.84999 13.998 2.84999 14.25C2.84999 14.502 2.95008 14.7436 3.12824 14.9218C3.3064 15.0999 3.54804 15.2 3.79999 15.2H15.2C15.4519 15.2 15.6936 15.0999 15.8717 14.9218C16.0499 14.7436 16.15 14.502 16.15 14.25Z" fill="#292D32"/>
</g>
</g>
</svg>
