<svg width="20" height="20" viewBox="0 0 20 20" fill="none" xmlns="http://www.w3.org/2000/svg">
<g id="vuesax/outline/hierarchy-square-2">
<g id="hierarchy-square-2">
<path id="Vector" d="M6.5 12.625C6.15833 12.625 5.875 12.3417 5.875 12V8.5C5.875 8.15833 6.15833 7.875 6.5 7.875C6.84167 7.875 7.125 8.15833 7.125 8.5V12C7.125 12.3417 6.84167 12.625 6.5 12.625Z" fill="#202124"/>
<path id="Vector_2" d="M6.62501 8.87499C5.38334 8.87499 4.375 7.86668 4.375 6.62501C4.375 5.38334 5.38334 4.375 6.62501 4.375C7.86668 4.375 8.87502 5.38334 8.87502 6.62501C8.87502 7.86668 7.86668 8.87499 6.62501 8.87499ZM6.62501 5.625C6.07501 5.625 5.625 6.07501 5.625 6.62501C5.625 7.17501 6.07501 7.62499 6.62501 7.62499C7.17501 7.62499 7.62502 7.17501 7.62502 6.62501C7.62502 6.07501 7.17501 5.625 6.62501 5.625Z" fill="#202124"/>
<path id="Vector_3" d="M6.49999 15.625C5.32499 15.625 4.375 14.675 4.375 13.5C4.375 12.325 5.32499 11.375 6.49999 11.375C7.67499 11.375 8.62498 12.325 8.62498 13.5C8.62498 14.675 7.67499 15.625 6.49999 15.625ZM6.49999 12.625C6.01666 12.625 5.625 13.0167 5.625 13.5C5.625 13.9833 6.01666 14.375 6.49999 14.375C6.98332 14.375 7.37498 13.9833 7.37498 13.5C7.37498 13.0167 6.98332 12.625 6.49999 12.625Z" fill="#202124"/>
<path id="Vector_4" d="M13.5 15.625C12.325 15.625 11.375 14.675 11.375 13.5C11.375 12.325 12.325 11.375 13.5 11.375C14.675 11.375 15.625 12.325 15.625 13.5C15.625 14.675 14.675 15.625 13.5 15.625ZM13.5 12.625C13.0167 12.625 12.625 13.0167 12.625 13.5C12.625 13.9833 13.0167 14.375 13.5 14.375C13.9833 14.375 14.375 13.9833 14.375 13.5C14.375 13.0167 13.9833 12.625 13.5 12.625Z" fill="#202124"/>
<path id="Vector_5" d="M13.0853 12.6429C12.827 12.6429 12.5853 12.4845 12.4936 12.2262C12.1603 11.2762 11.2686 10.6428 10.2603 10.6428H10.2519L8.53527 10.6512H8.52693C7.31859 10.6512 6.2603 9.83452 5.9603 8.66785C5.87696 8.33452 6.07695 7.99285 6.41028 7.90951C6.73528 7.82618 7.08526 8.02619 7.16859 8.35952C7.32692 8.97619 7.88526 9.40953 8.52693 9.40953C8.52693 9.40953 8.52694 9.40953 8.53527 9.40953L10.2519 9.40119C10.2603 9.40119 10.2603 9.40119 10.2686 9.40119C11.8019 9.40119 13.1769 10.3762 13.6853 11.8262C13.8019 12.1512 13.627 12.5095 13.302 12.6262C13.227 12.6345 13.152 12.6429 13.0853 12.6429Z" fill="#202124"/>
<path id="Vector_6" d="M12.5013 18.9596H7.5013C2.9763 18.9596 1.04297 17.0263 1.04297 12.5013V7.5013C1.04297 2.9763 2.9763 1.04297 7.5013 1.04297H12.5013C17.0263 1.04297 18.9596 2.9763 18.9596 7.5013V12.5013C18.9596 17.0263 17.0263 18.9596 12.5013 18.9596ZM7.5013 2.29297C3.65964 2.29297 2.29297 3.65964 2.29297 7.5013V12.5013C2.29297 16.343 3.65964 17.7096 7.5013 17.7096H12.5013C16.343 17.7096 17.7096 16.343 17.7096 12.5013V7.5013C17.7096 3.65964 16.343 2.29297 12.5013 2.29297H7.5013Z" fill="#202124"/>
</g>
</g>
</svg>
