<svg width="20" height="20" viewBox="0 0 20 20" fill="none" xmlns="http://www.w3.org/2000/svg">
<g id="vuesax/outline/health">
<g id="health">
<path id="Vector" d="M12.474 18.9596H7.47396C2.94896 18.9596 1.01562 17.0263 1.01562 12.5013V7.5013C1.01562 2.9763 2.94896 1.04297 7.47396 1.04297H12.474C16.999 1.04297 18.9323 2.9763 18.9323 7.5013V12.5013C18.9323 17.0263 17.0073 18.9596 12.474 18.9596ZM7.47396 2.29297C3.63229 2.29297 2.26562 3.65964 2.26562 7.5013V12.5013C2.26562 16.343 3.63229 17.7096 7.47396 17.7096H12.474C16.3156 17.7096 17.6823 16.343 17.6823 12.5013V7.5013C17.6823 3.65964 16.3156 2.29297 12.474 2.29297H7.47396Z" fill="#202124"/>
<path id="Vector_2" d="M9.54349 15.0501C9.34349 15.0501 8.86016 14.9751 8.57682 14.2501L7.62682 11.8501C7.49349 11.5084 7.01849 11.1917 6.66016 11.1917L1.66016 11.2084C1.31849 11.2084 1.03516 10.9334 1.03516 10.5834C1.03516 10.2417 1.31016 9.9584 1.66016 9.9584L6.66016 9.94173H6.66849C7.54349 9.94173 8.47682 10.5751 8.80182 11.3917L9.56016 13.3084L11.2768 8.9584C11.5352 8.3084 11.9935 8.21673 12.1852 8.20007C12.3768 8.19173 12.8435 8.2334 13.1685 8.85007L14.0352 10.4917C14.1852 10.7751 14.6352 11.0501 14.9602 11.0501H18.3435C18.6852 11.0501 18.9685 11.3334 18.9685 11.6751C18.9685 12.0167 18.6852 12.3001 18.3435 12.3001H14.9602C14.1685 12.3001 13.3018 11.7751 12.9352 11.0751L12.2852 9.84173L10.5352 14.2501C10.2268 14.9667 9.73516 15.0501 9.54349 15.0501Z" fill="#202124"/>
</g>
</g>
</svg>
