<svg width="20" height="22" viewBox="0 0 20 22" fill="none" xmlns="http://www.w3.org/2000/svg">
<g id="vuesax/outline/edit-2">
<g id="Vector">
<path d="M3.54 18.5196C2.93 18.5196 2.36 18.3096 1.95 17.9196C1.43 17.4296 1.18 16.6896 1.27 15.8896L1.64 12.6496C1.71 12.0396 2.08 11.2296 2.51 10.7896L10.72 2.09956C12.77 -0.0704393 14.91 -0.130439 17.08 1.91956C19.25 3.96956 19.31 6.10956 17.26 8.27956L9.05 16.9696C8.63 17.4196 7.85 17.8396 7.24 17.9396L4.02 18.4896C3.85 18.4996 3.7 18.5196 3.54 18.5196ZM13.93 1.90956C13.16 1.90956 12.49 2.38956 11.81 3.10956L3.6 11.8096C3.4 12.0196 3.17 12.5196 3.13 12.8096L2.76 16.0496C2.72 16.3796 2.8 16.6496 2.98 16.8196C3.16 16.9896 3.43 17.0496 3.76 16.9996L6.98 16.4496C7.27 16.3996 7.75 16.1396 7.95 15.9296L16.16 7.23956C17.4 5.91956 17.85 4.69956 16.04 2.99956C15.24 2.22956 14.55 1.90956 13.93 1.90956Z" fill="#363A3F"/>
<path d="M15.34 9.94956C15.32 9.94956 15.29 9.94956 15.27 9.94956C12.15 9.63956 9.64 7.26956 9.16 4.16956C9.1 3.75956 9.38 3.37956 9.79 3.30956C10.2 3.24956 10.58 3.52956 10.65 3.93956C11.03 6.35956 12.99 8.21956 15.43 8.45956C15.84 8.49956 16.14 8.86956 16.1 9.27956C16.05 9.65956 15.72 9.94956 15.34 9.94956Z" fill="#363A3F"/>
<path d="M19 21.7496H1C0.59 21.7496 0.25 21.4096 0.25 20.9996C0.25 20.5896 0.59 20.2496 1 20.2496H19C19.41 20.2496 19.75 20.5896 19.75 20.9996C19.75 21.4096 19.41 21.7496 19 21.7496Z" fill="#363A3F"/>
</g>
</g>
</svg>
