<svg width="18" height="18" viewBox="0 0 18 18" fill="none" xmlns="http://www.w3.org/2000/svg">
<g id="meh 1" clip-path="url(#clip0_1180_33863)">
<path id="Vector" d="M9 18C7.21997 18 5.47991 17.4722 3.99987 16.4832C2.51983 15.4943 1.36628 14.0887 0.685088 12.4442C0.00389957 10.7996 -0.17433 8.99002 0.172937 7.24419C0.520204 5.49836 1.37737 3.89472 2.63604 2.63604C3.89472 1.37737 5.49836 0.520204 7.24419 0.172937C8.99002 -0.17433 10.7996 0.00389957 12.4442 0.685088C14.0887 1.36628 15.4943 2.51983 16.4832 3.99987C17.4722 5.47991 18 7.21997 18 9C17.9974 11.3862 17.0484 13.6738 15.3611 15.3611C13.6738 17.0484 11.3862 17.9974 9 18ZM9 1.5C7.51664 1.5 6.0666 1.93987 4.83323 2.76398C3.59986 3.58809 2.63856 4.75943 2.07091 6.12988C1.50325 7.50032 1.35473 9.00832 1.64411 10.4632C1.9335 11.918 2.64781 13.2544 3.6967 14.3033C4.7456 15.3522 6.08197 16.0665 7.53683 16.3559C8.99168 16.6453 10.4997 16.4968 11.8701 15.9291C13.2406 15.3614 14.4119 14.4001 15.236 13.1668C16.0601 11.9334 16.5 10.4834 16.5 9C16.4978 7.01155 15.7069 5.10516 14.3009 3.69911C12.8948 2.29307 10.9885 1.50219 9 1.5ZM12.75 12C12.75 11.8011 12.671 11.6103 12.5303 11.4697C12.3897 11.329 12.1989 11.25 12 11.25H6C5.80109 11.25 5.61033 11.329 5.46967 11.4697C5.32902 11.6103 5.25 11.8011 5.25 12C5.25 12.1989 5.32902 12.3897 5.46967 12.5303C5.61033 12.671 5.80109 12.75 6 12.75H12C12.1989 12.75 12.3897 12.671 12.5303 12.5303C12.671 12.3897 12.75 12.1989 12.75 12ZM4.5 7.5C4.5 8.25 5.17125 8.25 6 8.25C6.82875 8.25 7.5 8.25 7.5 7.5C7.5 7.10218 7.34197 6.72065 7.06066 6.43934C6.77936 6.15804 6.39783 6 6 6C5.60218 6 5.22065 6.15804 4.93934 6.43934C4.65804 6.72065 4.5 7.10218 4.5 7.5ZM10.5 7.5C10.5 8.25 11.1713 8.25 12 8.25C12.8288 8.25 13.5 8.25 13.5 7.5C13.5 7.10218 13.342 6.72065 13.0607 6.43934C12.7794 6.15804 12.3978 6 12 6C11.6022 6 11.2206 6.15804 10.9393 6.43934C10.658 6.72065 10.5 7.10218 10.5 7.5Z" fill="#202124"/>
</g>
<defs>
<clipPath id="clip0_1180_33863">
<rect width="18" height="18" fill="white"/>
</clipPath>
</defs>
</svg>
