<svg width="183" height="183" viewBox="0 0 183 183" fill="none" xmlns="http://www.w3.org/2000/svg">
<g clip-path="url(#clip0_201_5)">
<path d="M24.4609 11.4393V171.564C24.4609 177.854 29.6068 183 35.8966 183H147.1C153.391 183 158.539 177.852 158.539 171.561V42.1241C158.539 38.6123 157.144 35.2443 154.661 32.7609L125.778 3.87816C123.295 1.39505 119.927 5.24765e-05 116.415 0L35.9002 0C29.6086 0 24.4609 5.14768 24.4609 11.4393Z" fill="url(#paint0_linear_201_5)"/>
<path d="M54.9399 88.2853H128.06C128.935 88.2853 129.775 87.9376 130.393 87.3188C131.012 86.7 131.36 85.8607 131.36 84.9855V76.9389C131.36 76.0638 131.012 75.2245 130.393 74.6056C129.775 73.9868 128.935 73.6392 128.06 73.6392H54.9399C54.0647 73.6392 53.2254 73.9868 52.6066 74.6056C51.9878 75.2245 51.6401 76.0638 51.6401 76.9389V84.9855C51.6401 85.8607 51.9878 86.7 52.6066 87.3188C53.2254 87.9376 54.0647 88.2853 54.9399 88.2853ZM54.9399 111.148H128.06C128.935 111.148 129.775 110.8 130.393 110.181C131.012 109.562 131.36 108.723 131.36 107.848V99.8013C131.36 98.9262 131.012 98.0869 130.393 97.4681C129.775 96.8493 128.935 96.5016 128.06 96.5016H54.9399C54.0647 96.5016 53.2254 96.8493 52.6066 97.4681C51.9878 98.0869 51.6401 98.9262 51.6401 99.8013V107.848C51.6401 108.723 51.9878 109.562 52.6066 110.181C53.2254 110.8 54.0647 111.148 54.9399 111.148ZM54.9399 134.01H128.06C128.935 134.01 129.775 133.662 130.393 133.043C131.012 132.424 131.36 131.585 131.36 130.71V122.664C131.36 121.789 131.012 120.949 130.393 120.331C129.775 119.712 128.935 119.364 128.06 119.364H54.9399C54.0647 119.364 53.2254 119.712 52.6066 120.331C51.9878 120.949 51.6401 121.789 51.6401 122.664V130.71C51.6402 131.585 51.9879 132.425 52.6067 133.043C53.2255 133.662 54.0648 134.01 54.9399 134.01ZM54.0292 156.872H91.0436C91.6772 156.872 92.2849 156.621 92.7329 156.173C93.181 155.724 93.4327 155.117 93.4327 154.483V144.616C93.4327 143.982 93.181 143.374 92.7329 142.926C92.2849 142.478 91.6772 142.226 91.0436 142.226H54.0292C53.3956 142.226 52.7879 142.478 52.3399 142.926C51.8918 143.374 51.6401 143.982 51.6401 144.616V154.483C51.6401 155.117 51.8918 155.724 52.3399 156.173C52.7879 156.621 53.3956 156.872 54.0292 156.872Z" fill="#EBEFF0"/>
<path d="M126.11 3.47198C124.423 1.78547 122.312 0.5859 120 0V37.2897L158.871 76.161V41.7175C158.871 38.2057 157.476 34.8377 154.993 32.3544L126.11 3.47198Z" fill="url(#paint1_linear_201_5)"/>
<path d="M158.147 38.9119C158.189 39.0956 158.228 39.2747 158.264 39.4473H123.225C120.744 39.4473 118.733 37.4361 118.733 34.9548V0.208496C119.02 0.259758 119.306 0.316942 119.591 0.380014C122.203 0.95772 124.585 2.3008 126.476 4.19215L154.341 32.0566C156.227 33.94 157.545 36.3154 158.147 38.9119Z" fill="url(#paint2_linear_201_5)"/>
<path d="M158.539 160.466V171.561C158.539 177.852 153.391 183 147.1 183H35.8966C29.6068 183 24.4609 177.854 24.4609 171.564V160.466H158.539Z" fill="url(#paint3_linear_201_5)"/>
</g>
<defs>
<linearGradient id="paint0_linear_201_5" x1="56.3901" y1="71.351" x2="143.439" y2="158.399" gradientUnits="userSpaceOnUse">
<stop stop-color="#7FAEF4"/>
<stop offset="1" stop-color="#4C8DF1"/>
</linearGradient>
<linearGradient id="paint1_linear_201_5" x1="120" y1="0" x2="158.871" y2="0" gradientUnits="userSpaceOnUse">
<stop stop-color="#4C8DF1" stop-opacity="0"/>
<stop offset="1" stop-color="#4256AC"/>
</linearGradient>
<linearGradient id="paint2_linear_201_5" x1="123.174" y1="21.073" x2="139.221" y2="37.1203" gradientUnits="userSpaceOnUse">
<stop stop-color="#A7C5FD"/>
<stop offset="1" stop-color="#7FAEF4"/>
</linearGradient>
<linearGradient id="paint3_linear_201_5" x1="24.4609" y1="160.466" x2="158.539" y2="160.466" gradientUnits="userSpaceOnUse">
<stop stop-color="#4C8DF1" stop-opacity="0"/>
<stop offset="1" stop-color="#4256AC"/>
</linearGradient>
<clipPath id="clip0_201_5">
<rect width="183" height="183" fill="white"/>
</clipPath>
</defs>
</svg>
