<svg width="16" height="16" viewBox="0 0 16 16" fill="none" xmlns="http://www.w3.org/2000/svg">
<g id="vuesax/outline/gallery-add">
<g id="gallery-add">
<path id="Vector" d="M5.9974 7.16667C4.98406 7.16667 4.16406 6.34667 4.16406 5.33333C4.16406 4.32 4.98406 3.5 5.9974 3.5C7.01073 3.5 7.83073 4.32 7.83073 5.33333C7.83073 6.34667 7.01073 7.16667 5.9974 7.16667ZM5.9974 4.5C5.5374 4.5 5.16406 4.87333 5.16406 5.33333C5.16406 5.79333 5.5374 6.16667 5.9974 6.16667C6.4574 6.16667 6.83073 5.79333 6.83073 5.33333C6.83073 4.87333 6.4574 4.5 5.9974 4.5Z" fill="#292D32"/>
<path id="Vector_2" d="M10.0026 15.1654H6.0026C2.3826 15.1654 0.835938 13.6187 0.835938 9.9987V5.9987C0.835938 2.3787 2.3826 0.832031 6.0026 0.832031H8.66927C8.9426 0.832031 9.16927 1.0587 9.16927 1.33203C9.16927 1.60536 8.9426 1.83203 8.66927 1.83203H6.0026C2.92927 1.83203 1.83594 2.92536 1.83594 5.9987V9.9987C1.83594 13.072 2.92927 14.1654 6.0026 14.1654H10.0026C13.0759 14.1654 14.1693 13.072 14.1693 9.9987V6.66536C14.1693 6.39203 14.3959 6.16536 14.6693 6.16536C14.9426 6.16536 15.1693 6.39203 15.1693 6.66536V9.9987C15.1693 13.6187 13.6226 15.1654 10.0026 15.1654Z" fill="#292D32"/>
<path id="Vector_3" d="M14.1667 3.83203H10.5C10.2267 3.83203 10 3.60536 10 3.33203C10 3.0587 10.2267 2.83203 10.5 2.83203H14.1667C14.44 2.83203 14.6667 3.0587 14.6667 3.33203C14.6667 3.60536 14.44 3.83203 14.1667 3.83203Z" fill="#292D32"/>
<path id="Vector_4" d="M12.3359 5.66667C12.0626 5.66667 11.8359 5.44 11.8359 5.16667V1.5C11.8359 1.22667 12.0626 1 12.3359 1C12.6093 1 12.8359 1.22667 12.8359 1.5V5.16667C12.8359 5.44 12.6093 5.66667 12.3359 5.66667Z" fill="#292D32"/>
<path id="Vector_5" d="M1.77954 13.135C1.61954 13.135 1.45954 13.055 1.36621 12.915C1.21288 12.6883 1.27288 12.375 1.49954 12.2217L4.78621 10.015C5.50621 9.535 6.49954 9.58833 7.15288 10.1417L7.37288 10.335C7.70621 10.6217 8.27288 10.6217 8.59954 10.335L11.3729 7.955C12.0862 7.34833 13.1929 7.34833 13.9062 7.955L14.9929 8.88833C15.1995 9.06833 15.2262 9.38167 15.0462 9.595C14.8662 9.80167 14.5529 9.82833 14.3395 9.64833L13.2529 8.715C12.9195 8.42833 12.3529 8.42833 12.0262 8.715L9.25288 11.095C8.54621 11.7017 7.43288 11.7017 6.71954 11.095L6.49954 10.9017C6.19288 10.6417 5.68621 10.615 5.34621 10.8483L2.06621 13.055C1.97288 13.1083 1.87288 13.135 1.77954 13.135Z" fill="#292D32"/>
</g>
</g>
</svg>
