<svg width="18" height="18" viewBox="0 0 18 18" fill="none" xmlns="http://www.w3.org/2000/svg">
<g id="paperclip (2) 1" clip-path="url(#clip0_1691_19484)">
<path id="Vector" d="M9 18C5.89801 18 3.375 15.477 3.375 12.375V4.5C3.375 4.08527 3.71104 3.75005 4.12495 3.75005C4.539 3.75005 4.87505 4.08527 4.87505 4.5V12.375C4.87505 14.649 6.72528 16.5 9 16.5C11.2747 16.5 13.125 14.649 13.125 12.375V4.12495C13.125 2.67751 11.9475 1.50005 10.5 1.50005C9.05246 1.50005 7.875 2.67751 7.875 4.12495V11.625C7.875 12.2452 8.37968 12.75 9 12.75C9.62032 12.75 10.125 12.2452 10.125 11.625V4.5C10.125 4.08527 10.461 3.75005 10.875 3.75005C11.289 3.75005 11.625 4.08527 11.625 4.5V11.625C11.625 13.0725 10.4474 14.25 9 14.25C7.55255 14.25 6.37495 13.0725 6.37495 11.625V4.12495C6.37495 1.85106 8.22519 0 10.5 0C12.7748 0 14.625 1.85106 14.625 4.12495V12.375C14.625 15.477 12.102 18 9 18Z" fill="#00143C"/>
</g>
<defs>
<clipPath id="clip0_1691_19484">
<rect width="18" height="18" fill="white"/>
</clipPath>
</defs>
</svg>
