<svg width="119" height="44" viewBox="0 0 119 44" fill="none" xmlns="http://www.w3.org/2000/svg">
<rect width="44" height="44" rx="4" fill="#135880"/>
<path fill-rule="evenodd" clip-rule="evenodd" d="M23.2763 13.2351C21.5707 13.1783 19.8475 13.6436 18.3597 14.6367C16.6888 15.7532 15.5211 17.402 14.9832 19.2452C14.8347 19.2271 14.6568 19.2351 14.4456 19.2948C13.6571 19.5186 13.064 20.1647 12.7973 20.7338C12.4515 21.4754 12.3056 22.4562 12.4595 23.4687C12.6123 24.478 13.0387 25.31 13.572 25.8266C14.1069 26.3434 14.7109 26.5114 15.3109 26.3852C16.2043 26.1946 16.6472 26.0519 16.5221 25.2196L15.9165 21.1852C16.0387 19.0018 17.1691 16.9463 19.0597 15.6823C21.5904 13.9919 24.9083 14.1002 27.3222 15.9532C29.0014 17.2407 29.9763 19.1698 30.0888 21.1948L29.6653 24.017C28.7208 26.6018 26.3792 28.3922 23.6696 28.6463H21.8653C21.3997 28.6463 21.0248 29.0212 21.0248 29.4863V29.9295C21.0248 30.3948 21.3997 30.7698 21.8653 30.7698H24.1403C24.6056 30.7698 24.9789 30.3948 24.9789 29.9295V29.6978C27.0222 29.1991 28.8056 27.9434 29.9669 26.1922L30.6957 26.3855C31.2888 26.5394 31.9 26.3434 32.4347 25.8268C32.968 25.31 33.3941 24.4783 33.5472 23.469C33.7016 22.4564 33.5515 21.4772 33.2096 20.734C32.8664 19.9908 32.3552 19.5188 31.7651 19.3495C31.5179 19.2783 31.2496 19.2522 31.0195 19.2452C30.5331 17.5786 29.5317 16.0628 28.0885 14.9562C26.6696 13.8674 24.9819 13.2911 23.2763 13.2351Z" fill="white"/>
<path fill-rule="evenodd" clip-rule="evenodd" d="M25.9364 20.4918C26.5378 20.4918 27.0252 20.9793 27.0266 21.5822C27.0252 22.1835 26.5378 22.6723 25.9364 22.6723C25.3335 22.6723 24.8447 22.1835 24.8447 21.5822C24.8447 20.9795 25.3338 20.4918 25.9364 20.4918ZM23.0004 20.4918C23.6031 20.4918 24.0906 20.9793 24.0906 21.5822C24.0906 22.1835 23.6031 22.6723 23.0004 22.6723C22.3972 22.6723 21.9098 22.1835 21.9098 21.5822C21.9098 20.9795 22.3972 20.4918 23.0004 20.4918ZM20.0655 20.4918C20.6668 20.4918 21.1556 20.9793 21.1556 21.5822C21.1556 22.1835 20.6668 22.6723 20.0655 22.6723C19.4628 22.6723 18.9751 22.1835 18.9751 21.5822C18.9751 20.9795 19.4628 20.4918 20.0655 20.4918ZM23.0004 15.8086C19.8031 15.8086 17.2266 18.3003 17.2266 21.5822C17.2266 23.1585 17.8226 24.5515 18.7935 25.5737L18.449 27.1182C18.3354 27.6265 18.6879 27.9683 19.1447 27.7139L20.653 26.8726C21.3698 27.1838 22.1626 27.3558 23.0004 27.3558C26.1988 27.3558 28.7738 24.8657 28.7738 21.5822C28.7738 18.3003 26.1988 15.8086 23.0004 15.8086Z" fill="white"/>
<path d="M59.8686 22.3828H57.6911C57.6513 22.1011 57.5701 21.8509 57.4474 21.6321C57.3248 21.41 57.1674 21.2211 56.9751 21.0653C56.7829 20.9096 56.5608 20.7902 56.3089 20.7074C56.0604 20.6245 55.7902 20.5831 55.4986 20.5831C54.9716 20.5831 54.5125 20.714 54.1214 20.9759C53.7304 21.2344 53.4271 21.6122 53.2116 22.1094C52.9962 22.6032 52.8885 23.2031 52.8885 23.9091C52.8885 24.6349 52.9962 25.2448 53.2116 25.7386C53.4304 26.2325 53.7353 26.6054 54.1264 26.8572C54.5175 27.1091 54.9699 27.2351 55.4837 27.2351C55.772 27.2351 56.0388 27.197 56.2841 27.1207C56.5327 27.0445 56.7531 26.9335 56.9453 26.7876C57.1375 26.6385 57.2966 26.4579 57.4226 26.2457C57.5518 26.0336 57.6413 25.7917 57.6911 25.5199L59.8686 25.5298C59.8123 25.9972 59.6714 26.4479 59.446 26.8821C59.224 27.313 58.924 27.6991 58.5462 28.0405C58.1716 28.3786 57.7242 28.647 57.2038 28.8459C56.6868 29.0414 56.1018 29.1392 55.4489 29.1392C54.5407 29.1392 53.7287 28.9337 53.0128 28.5227C52.3002 28.1117 51.7367 27.5168 51.3224 26.7379C50.9115 25.959 50.706 25.0161 50.706 23.9091C50.706 22.7988 50.9148 21.8542 51.3324 21.0753C51.75 20.2964 52.3168 19.7031 53.0327 19.2955C53.7486 18.8845 54.554 18.679 55.4489 18.679C56.0388 18.679 56.5857 18.7618 57.0895 18.9276C57.5966 19.0933 58.0457 19.3352 58.4368 19.6534C58.8279 19.9683 59.1461 20.3544 59.3913 20.8118C59.6399 21.2692 59.799 21.7929 59.8686 22.3828ZM61.4123 29V18.8182H63.565V23.0192H67.935V18.8182H70.0827V29H67.935V24.794H63.565V29H61.4123ZM73.6126 29H71.3058L74.8207 18.8182H77.5948L81.1048 29H78.7979L76.2475 21.1449H76.168L73.6126 29ZM73.4684 24.9979H78.9173V26.6783H73.4684V24.9979ZM80.6983 20.593V18.8182H89.0605V20.593H85.9434V29H83.8155V20.593H80.6983ZM90.4377 29V18.8182H94.5144C95.2634 18.8182 95.8882 18.9292 96.3887 19.1513C96.8891 19.3733 97.2653 19.6816 97.5172 20.076C97.7691 20.4671 97.8951 20.9179 97.8951 21.4283C97.8951 21.826 97.8155 22.1757 97.6564 22.4773C97.4973 22.7756 97.2786 23.0208 97.0002 23.2131C96.7251 23.402 96.4102 23.5362 96.0556 23.6158V23.7152C96.4434 23.7318 96.8063 23.8411 97.1444 24.0433C97.4857 24.2455 97.7625 24.5289 97.9746 24.8935C98.1867 25.2547 98.2928 25.6856 98.2928 26.1861C98.2928 26.7263 98.1586 27.2086 97.8901 27.6328C97.6249 28.0537 97.2322 28.3868 96.7118 28.6321C96.1915 28.8774 95.5501 29 94.7878 29H90.4377ZM92.5904 27.2401H94.3453C94.9453 27.2401 95.3828 27.1257 95.6578 26.897C95.9329 26.665 96.0705 26.3568 96.0705 25.9723C96.0705 25.6906 96.0025 25.442 95.8667 25.2266C95.7308 25.0111 95.5369 24.8421 95.285 24.7195C95.0364 24.5968 94.7398 24.5355 94.3951 24.5355H92.5904V27.2401ZM92.5904 23.0788H94.1863C94.4812 23.0788 94.7431 23.0275 94.9718 22.9247C95.2038 22.8187 95.3861 22.6695 95.5186 22.4773C95.6545 22.285 95.7225 22.0547 95.7225 21.7862C95.7225 21.4183 95.5916 21.1217 95.3297 20.8963C95.0712 20.6709 94.7033 20.5582 94.226 20.5582H92.5904V23.0788ZM109.05 23.9091C109.05 25.0194 108.84 25.964 108.419 26.7429C108.001 27.5218 107.431 28.1167 106.708 28.5277C105.989 28.9354 105.181 29.1392 104.282 29.1392C103.377 29.1392 102.565 28.9337 101.846 28.5227C101.127 28.1117 100.559 27.5168 100.141 26.7379C99.7234 25.959 99.5146 25.0161 99.5146 23.9091C99.5146 22.7988 99.7234 21.8542 100.141 21.0753C100.559 20.2964 101.127 19.7031 101.846 19.2955C102.565 18.8845 103.377 18.679 104.282 18.679C105.181 18.679 105.989 18.8845 106.708 19.2955C107.431 19.7031 108.001 20.2964 108.419 21.0753C108.84 21.8542 109.05 22.7988 109.05 23.9091ZM106.868 23.9091C106.868 23.1899 106.76 22.5833 106.544 22.0895C106.332 21.5956 106.032 21.2211 105.645 20.9659C105.257 20.7107 104.803 20.5831 104.282 20.5831C103.762 20.5831 103.308 20.7107 102.92 20.9659C102.532 21.2211 102.231 21.5956 102.015 22.0895C101.803 22.5833 101.697 23.1899 101.697 23.9091C101.697 24.6283 101.803 25.2348 102.015 25.7287C102.231 26.2225 102.532 26.5971 102.92 26.8523C103.308 27.1075 103.762 27.2351 104.282 27.2351C104.803 27.2351 105.257 27.1075 105.645 26.8523C106.032 26.5971 106.332 26.2225 106.544 25.7287C106.76 25.2348 106.868 24.6283 106.868 23.9091ZM109.792 20.593V18.8182H118.154V20.593H115.037V29H112.909V20.593H109.792Z" fill="#13587F"/>
</svg>
