<svg width="15" height="15" viewBox="0 0 15 15" fill="none" xmlns="http://www.w3.org/2000/svg">
<g id="logout-icon 1" clip-path="url(#clip0_16_11)">
<g id="Clip path group">
<mask id="mask0_16_11" style="mask-type:luminance" maskUnits="userSpaceOnUse" x="0" y="0" width="15" height="15">
<g id="clip0_15_7">
<path id="Vector" d="M0 0H15V15H0V0Z" fill="white"/>
</g>
</mask>
<g mask="url(#mask0_16_11)">
<g id="Frame">
<g id="Group">
<path id="Vector_2" d="M7.49999 15C5.92173 14.9985 4.39204 14.454 3.16779 13.4579C1.94353 12.4618 1.09926 11.0749 0.776744 9.52993C0.45422 7.98497 0.673082 6.37608 1.39658 4.97341C2.12008 3.57074 3.30415 2.45971 4.74999 1.82687C4.8253 1.79353 4.90645 1.77541 4.98878 1.77353C5.07111 1.77166 5.153 1.78607 5.22974 1.81595C5.30649 1.84582 5.37657 1.89057 5.43596 1.94762C5.49536 2.00466 5.54289 2.07289 5.57583 2.14837C5.60877 2.22384 5.62647 2.30509 5.62791 2.38743C5.62936 2.46977 5.61451 2.55158 5.58423 2.62817C5.55395 2.70475 5.50884 2.7746 5.45148 2.83369C5.39412 2.89278 5.32564 2.93995 5.24999 2.9725C4.06559 3.48941 3.09529 4.39838 2.50226 5.54656C1.90922 6.69475 1.72962 8.01211 1.99365 9.27714C2.25767 10.5422 2.94923 11.6777 3.95203 12.4928C4.95482 13.3079 6.2077 13.7529 7.49999 13.7529C8.79228 13.7529 10.0452 13.3079 11.048 12.4928C12.0508 11.6777 12.7423 10.5422 13.0064 9.27714C13.2704 8.01211 13.0908 6.69475 12.4977 5.54656C11.9047 4.39838 10.9344 3.48941 9.74999 2.9725C9.67434 2.93995 9.60587 2.89278 9.54851 2.83369C9.49115 2.7746 9.44603 2.70475 9.41575 2.62817C9.38547 2.55158 9.37063 2.46977 9.37207 2.38743C9.37351 2.30509 9.39121 2.22384 9.42415 2.14837C9.4571 2.07289 9.50463 2.00466 9.56402 1.94762C9.62342 1.89057 9.6935 1.84582 9.77024 1.81595C9.84699 1.78607 9.92888 1.77166 10.0112 1.77353C10.0936 1.77541 10.1747 1.79353 10.25 1.82687C11.6958 2.45971 12.8799 3.57074 13.6034 4.97341C14.3269 6.37608 14.5458 7.98497 14.2233 9.52993C13.9007 11.0749 13.0565 12.4618 11.8322 13.4579C10.608 14.454 9.07826 14.9985 7.49999 15Z" fill="black"/>
<path id="Vector_2_2" d="M7.5 6.25C7.33424 6.25 7.17527 6.18415 7.05806 6.06694C6.94085 5.94973 6.875 5.79076 6.875 5.625V0.625C6.875 0.45924 6.94085 0.300269 7.05806 0.183058C7.17527 0.065848 7.33424 0 7.5 0C7.66576 0 7.82473 0.065848 7.94194 0.183058C8.05915 0.300269 8.125 0.45924 8.125 0.625V5.625C8.125 5.79076 8.05915 5.94973 7.94194 6.06694C7.82473 6.18415 7.66576 6.25 7.5 6.25Z" fill="black"/>
</g>
</g>
</g>
</g>
</g>
<defs>
<clipPath id="clip0_16_11">
<rect width="15" height="15" fill="white"/>
</clipPath>
</defs>
</svg>
