<svg xmlns="http://www.w3.org/2000/svg" xmlns:xlink="http://www.w3.org/1999/xlink" width="24" height="24" viewBox="0 0 24 24">
  <defs>
    <clipPath id="clip-path">
      <rect id="Rectangle_14324" data-name="Rectangle 14324" width="24" height="24" transform="translate(6798 7862)" fill="#fff"/>
    </clipPath>
  </defs>
  <g id="menu-icon" transform="translate(-6798 -7862)" clip-path="url(#clip-path)">
    <g id="paragraph" transform="translate(6795.6 7859.6)">
      <path id="Path_39206" data-name="Path 39206" d="M24.6,5.4H4.2A1.8,1.8,0,1,0,4.2,9H24.6a1.8,1.8,0,1,0,0-3.6Z" fill="#fff"/>
      <path id="Path_39207" data-name="Path 39207" d="M21.2,12.6H4.2a1.8,1.8,0,1,0,0,3.6h17a1.8,1.8,0,1,0,0-3.6Z" fill="#fff"/>
      <path id="Path_39208" data-name="Path 39208" d="M14.4,19.8H4.2a1.8,1.8,0,1,0,0,3.6H14.4a1.8,1.8,0,1,0,0-3.6Z" fill="#fff"/>
    </g>
  </g>
</svg>
