<svg width="20" height="20" viewBox="0 0 20 20" fill="none" xmlns="http://www.w3.org/2000/svg">
<g id="vuesax/outline/more-square">
<g id="more-square">
<path id="Vector" d="M12.4974 18.9596H7.4974C2.9724 18.9596 1.03906 17.0263 1.03906 12.5013V7.5013C1.03906 2.9763 2.9724 1.04297 7.4974 1.04297H12.4974C17.0224 1.04297 18.9557 2.9763 18.9557 7.5013V12.5013C18.9557 17.0263 17.0224 18.9596 12.4974 18.9596ZM7.4974 2.29297C3.65573 2.29297 2.28906 3.65964 2.28906 7.5013V12.5013C2.28906 16.343 3.65573 17.7096 7.4974 17.7096H12.4974C16.3391 17.7096 17.7057 16.343 17.7057 12.5013V7.5013C17.7057 3.65964 16.3391 2.29297 12.4974 2.29297H7.4974Z" fill="#99ACCC"/>
<path id="Vector_2" d="M9.9974 10.8346C9.53073 10.8346 9.16406 10.4596 9.16406 10.0013C9.16406 9.54297 9.53906 9.16797 9.9974 9.16797C10.4557 9.16797 10.8307 9.54297 10.8307 10.0013C10.8307 10.4596 10.4641 10.8346 9.9974 10.8346Z" fill="#99ACCC"/>
<path id="Vector_3" d="M13.3333 10.8346C12.8667 10.8346 12.5 10.4596 12.5 10.0013C12.5 9.54297 12.875 9.16797 13.3333 9.16797C13.7917 9.16797 14.1667 9.54297 14.1667 10.0013C14.1667 10.4596 13.8 10.8346 13.3333 10.8346Z" fill="#99ACCC"/>
<path id="Vector_4" d="M6.66927 10.8346C6.2026 10.8346 5.83594 10.4596 5.83594 10.0013C5.83594 9.54297 6.21094 9.16797 6.66927 9.16797C7.1276 9.16797 7.5026 9.54297 7.5026 10.0013C7.5026 10.4596 7.13594 10.8346 6.66927 10.8346Z" fill="#99ACCC"/>
</g>
</g>
</svg>
