<svg width="20" height="20" viewBox="0 0 20 20" fill="none" xmlns="http://www.w3.org/2000/svg">
<g id="vuesax/outline/notification-bing">
<g id="notification-bing">
<path id="Vector" d="M10 8.76719C9.65833 8.76719 9.375 8.48385 9.375 8.14219V5.36719C9.375 5.02552 9.65833 4.74219 10 4.74219C10.3417 4.74219 10.625 5.02552 10.625 5.36719V8.14219C10.625 8.49219 10.3417 8.76719 10 8.76719Z" fill="#677E9E"/>
<path id="Vector_2" d="M10.0148 16.9602C7.86477 16.9602 5.7231 16.6185 3.68143 15.9352C2.9231 15.6852 2.3481 15.1435 2.0981 14.4602C1.8481 13.7768 1.93143 12.9935 2.33977 12.3102L3.3981 10.5435C3.63143 10.1518 3.83977 9.41849 3.83977 8.96016V7.21016C3.83977 3.80182 6.60643 1.03516 10.0148 1.03516C13.4231 1.03516 16.1898 3.80182 16.1898 7.21016V8.96016C16.1898 9.41016 16.3981 10.1518 16.6314 10.5435L17.6898 12.3102C18.0814 12.9602 18.1481 13.7352 17.8898 14.4435C17.6314 15.1518 17.0648 15.6935 16.3481 15.9352C14.3064 16.6268 12.1648 16.9602 10.0148 16.9602ZM10.0148 2.29349C7.2981 2.29349 5.08977 4.50182 5.08977 7.21849V8.96849C5.08977 9.64349 4.8231 10.6185 4.4731 11.1935L3.41477 12.9685C3.1981 13.3268 3.1481 13.7102 3.2731 14.0435C3.3981 14.3768 3.68143 14.6268 4.08143 14.7602C7.91477 16.0352 12.1314 16.0352 15.9648 14.7602C16.3231 14.6435 16.5981 14.3768 16.7231 14.0268C16.8564 13.6768 16.8148 13.2935 16.6231 12.9685L15.5648 11.2018C15.2148 10.6268 14.9481 9.65182 14.9481 8.97682V7.22682C14.9398 4.50182 12.7314 2.29349 10.0148 2.29349Z" fill="#677E9E"/>
<path id="Vector_3" d="M10.0016 19.0836C9.1099 19.0836 8.2349 18.7169 7.60156 18.0836C6.96823 17.4503 6.60156 16.5753 6.60156 15.6836H7.85156C7.85156 16.2503 8.0849 16.8003 8.4849 17.2003C8.8849 17.6003 9.4349 17.8336 10.0016 17.8336C11.1849 17.8336 12.1516 16.8669 12.1516 15.6836H13.4016C13.4016 17.5586 11.8766 19.0836 10.0016 19.0836Z" fill="#677E9E"/>
</g>
</g>
</svg>
