<svg width="20" height="20" viewBox="0 0 20 20" fill="none" xmlns="http://www.w3.org/2000/svg">
<g id="vuesax/outline/format-circle">
<g id="format-circle">
<path id="Vector" d="M15.5416 7.45825C13.8833 7.45825 12.5416 6.10825 12.5416 4.45825C12.5416 3.78325 12.7666 3.14159 13.1833 2.60825C13.2 2.58325 13.225 2.56659 13.2416 2.54159C13.8083 1.84992 14.6416 1.45825 15.5416 1.45825C17.1916 1.45825 18.5416 2.80825 18.5416 4.45825C18.5416 5.38325 18.125 6.24159 17.3916 6.81659C16.8583 7.23325 16.2166 7.45825 15.5416 7.45825ZM14.125 3.43325C13.9083 3.73325 13.7916 4.08325 13.7916 4.45825C13.7916 5.42492 14.575 6.20825 15.5416 6.20825C15.9333 6.20825 16.3083 6.07492 16.6166 5.83325C17.0416 5.49992 17.2916 4.99992 17.2916 4.45825C17.2916 3.49159 16.5083 2.70825 15.5416 2.70825C15 2.70825 14.5 2.94992 14.175 3.37492C14.1583 3.39992 14.1416 3.41659 14.125 3.43325Z" fill="black"/>
<path id="Vector_2" d="M4.45837 7.45825C3.78337 7.45825 3.14171 7.23325 2.60837 6.81659C1.87504 6.24159 1.45837 5.38325 1.45837 4.45825C1.45837 2.80825 2.80837 1.45825 4.45837 1.45825C5.38337 1.45825 6.24171 1.87492 6.81671 2.60825C7.23337 3.14159 7.45837 3.78325 7.45837 4.45825C7.45837 6.10825 6.10837 7.45825 4.45837 7.45825ZM4.45837 2.70825C3.49171 2.70825 2.70837 3.49159 2.70837 4.45825C2.70837 4.99992 2.95004 5.49992 3.38337 5.83325C3.69171 6.07492 4.06671 6.20825 4.45837 6.20825C5.42504 6.20825 6.20837 5.42492 6.20837 4.45825C6.20837 4.06659 6.07504 3.69159 5.83337 3.38325C5.50004 2.94992 5.00004 2.70825 4.45837 2.70825Z" fill="black"/>
<path id="Vector_3" d="M15.5416 18.5417C14.6416 18.5417 13.8083 18.1501 13.2416 17.4584C13.2166 17.4417 13.2 17.4167 13.1833 17.3917C12.7666 16.8584 12.5416 16.2167 12.5416 15.5417C12.5416 13.8834 13.8916 12.5417 15.5416 12.5417C16.2166 12.5417 16.8583 12.7667 17.3916 13.1834C17.4166 13.2001 17.4333 13.2251 17.4583 13.2417C18.15 13.8084 18.5416 14.6417 18.5416 15.5417C18.5416 17.1917 17.1916 18.5417 15.5416 18.5417ZM14.125 16.5667C14.1416 16.5834 14.1583 16.6001 14.175 16.6251C14.5 17.0501 15 17.2917 15.5416 17.2917C16.5083 17.2917 17.2916 16.5084 17.2916 15.5417C17.2916 15.0001 17.05 14.5001 16.625 14.1751C16.6 14.1584 16.5833 14.1417 16.5666 14.1251C16.2666 13.9084 15.9166 13.7917 15.5416 13.7917C14.575 13.7917 13.7916 14.5751 13.7916 15.5417C13.7916 15.9167 13.9083 16.2667 14.125 16.5667Z" fill="black"/>
<path id="Vector_4" d="M4.45837 18.5417C2.80837 18.5417 1.45837 17.1917 1.45837 15.5417C1.45837 14.6417 1.85004 13.8084 2.54171 13.2417C2.55837 13.2167 2.58337 13.2001 2.60837 13.1834C3.14171 12.7667 3.78337 12.5417 4.45837 12.5417C6.11671 12.5417 7.45837 13.8917 7.45837 15.5417C7.45837 16.2167 7.23337 16.8584 6.81671 17.3917C6.24171 18.1251 5.38337 18.5417 4.45837 18.5417ZM3.43337 14.1251C3.41671 14.1417 3.40004 14.1584 3.37504 14.1751C2.95004 14.5001 2.70837 15.0001 2.70837 15.5417C2.70837 16.5084 3.49171 17.2917 4.45837 17.2917C5.00004 17.2917 5.50004 17.0501 5.83337 16.6167C6.07504 16.3084 6.20837 15.9334 6.20837 15.5417C6.20837 14.5751 5.42504 13.7917 4.45837 13.7917C4.08337 13.7917 3.73337 13.9084 3.43337 14.1251Z" fill="black"/>
<path id="Vector_5" d="M10 18.5416C8.61671 18.5416 7.24171 18.1999 6.03337 17.5583C5.86671 17.4749 5.75837 17.3166 5.71671 17.1333C5.67504 16.9499 5.71671 16.7666 5.83337 16.6166C6.07504 16.3083 6.20837 15.9333 6.20837 15.5416C6.20837 14.5749 5.42504 13.7916 4.45837 13.7916C4.06671 13.7916 3.69171 13.9249 3.38337 14.1666C3.24171 14.2833 3.05004 14.3249 2.86671 14.2833C2.68337 14.2416 2.53337 14.1333 2.44171 13.9666C1.79171 12.7416 1.45837 11.4083 1.45837 9.99992C1.45837 8.61659 1.80004 7.24159 2.44171 6.03325C2.52504 5.86659 2.68337 5.75825 2.86671 5.71659C3.05004 5.67492 3.23337 5.72492 3.38337 5.83325C3.69171 6.07492 4.06671 6.20825 4.45837 6.20825C5.42504 6.20825 6.20837 5.42492 6.20837 4.45825C6.20837 4.06659 6.07504 3.69159 5.83337 3.38325C5.71671 3.24159 5.67504 3.04992 5.71671 2.86659C5.75837 2.68325 5.86671 2.53325 6.03337 2.44159C7.24171 1.79992 8.61671 1.45825 10 1.45825C11.4084 1.45825 12.7417 1.79159 13.9667 2.44159C14.1334 2.52492 14.2417 2.68325 14.2834 2.86659C14.325 3.04992 14.275 3.23325 14.1667 3.38325C13.925 3.69159 13.7917 4.06659 13.7917 4.45825C13.7917 5.42492 14.575 6.20825 15.5417 6.20825C15.9334 6.20825 16.3084 6.07492 16.6167 5.83325C16.7584 5.71659 16.95 5.67492 17.1334 5.71659C17.3167 5.75825 17.4667 5.86659 17.5584 6.03325C18.2 7.24159 18.5417 8.61659 18.5417 9.99992C18.5417 11.4083 18.2084 12.7416 17.5584 13.9666C17.475 14.1333 17.3167 14.2416 17.1334 14.2833C16.95 14.3249 16.7667 14.2749 16.6167 14.1666C16.3084 13.9249 15.9334 13.7916 15.5417 13.7916C14.575 13.7916 13.7917 14.5749 13.7917 15.5416C13.7917 15.9333 13.925 16.3083 14.1667 16.6166C14.2834 16.7583 14.325 16.9499 14.2834 17.1333C14.2417 17.3166 14.1334 17.4666 13.9667 17.5583C12.7417 18.2083 11.4084 18.5416 10 18.5416ZM7.20837 16.7333C8.97504 17.4749 11.0417 17.4666 12.7834 16.7333C12.6167 16.3583 12.5334 15.9583 12.5334 15.5416C12.5334 13.8833 13.8834 12.5416 15.5334 12.5416C15.95 12.5416 16.35 12.6249 16.725 12.7916C17.0917 11.9166 17.2834 10.9833 17.2834 9.99992C17.2834 9.04159 17.0917 8.08325 16.725 7.20825C16.35 7.37492 15.95 7.45825 15.5334 7.45825C13.875 7.45825 12.5334 6.10825 12.5334 4.45825C12.5334 4.04159 12.6167 3.64159 12.7834 3.26659C11.0417 2.53325 8.96671 2.53325 7.20837 3.26659C7.37504 3.64159 7.45837 4.04159 7.45837 4.45825C7.45837 6.11659 6.10837 7.45825 4.45837 7.45825C4.04171 7.45825 3.64171 7.37492 3.26671 7.20825C2.90004 8.08325 2.70837 9.04159 2.70837 9.99992C2.70837 10.9749 2.89171 11.9083 3.26671 12.7916C3.64171 12.6249 4.04171 12.5416 4.45837 12.5416C6.11671 12.5416 7.45837 13.8916 7.45837 15.5416C7.45837 15.9583 7.37504 16.3583 7.20837 16.7333Z" fill="black"/>
</g>
</g>
</svg>
