<svg width="30" height="30" viewBox="0 0 30 30" fill="none" xmlns="http://www.w3.org/2000/svg">
<g id="circle-xmark 1">
<path id="Vector" d="M19.9031 11.5698L16.4729 15L19.9031 18.4302L18.4302 19.9031L15 16.4729L11.5698 19.9031L10.0969 18.4302L13.5271 15L10.0969 11.5698L11.5698 10.0969L15 13.5271L18.4302 10.0969L19.9031 11.5698ZM27.5 15C27.5 21.8927 21.8927 27.5 15 27.5C8.10729 27.5 2.5 21.8927 2.5 15C2.5 8.10729 8.10729 2.5 15 2.5C21.8927 2.5 27.5 8.10729 27.5 15ZM25.4167 15C25.4167 9.25625 20.7437 4.58333 15 4.58333C9.25625 4.58333 4.58333 9.25625 4.58333 15C4.58333 20.7437 9.25625 25.4167 15 25.4167C20.7437 25.4167 25.4167 20.7437 25.4167 15Z" fill="#FF4444"/>
</g>
</svg>
