<svg width="20" height="20" viewBox="0 0 20 20" fill="none" xmlns="http://www.w3.org/2000/svg">
<g id="vuesax/outline/graph">
<g id="graph">
<path id="Vector" d="M15.2667 10.6234H12.5C10.425 10.6234 9.375 9.44842 9.375 7.12342V4.73175C9.375 3.88175 9.475 2.66509 10.3583 1.99842C11.1 1.44842 12.1667 1.40675 13.7417 1.86509C15.8083 2.46509 17.5333 4.19009 18.1333 6.25675C18.5917 7.82342 18.55 8.89842 18 9.63175C17.3333 10.5234 16.1167 10.6234 15.2667 10.6234ZM11.9 2.79842C11.5583 2.79842 11.2917 2.86509 11.1167 2.99842C10.7917 3.24009 10.6333 3.80675 10.6333 4.73175V7.13175C10.6333 8.99842 11.35 9.38175 12.5083 9.38175H15.275C16.1917 9.38175 16.7583 9.22342 17.0083 8.89842C17.3 8.51509 17.275 7.74842 16.95 6.62342C16.4667 4.98175 15.05 3.55675 13.4083 3.08175C12.7917 2.89009 12.2917 2.79842 11.9 2.79842Z" fill="#292D32"/>
<path id="Vector_2" d="M9.2227 18.9602C8.78104 18.9602 8.33104 18.9269 7.88104 18.8519C4.4727 18.3019 1.6977 15.5352 1.1477 12.1269C0.439372 7.74356 3.26437 3.61023 7.58937 2.72689C7.93104 2.66023 8.25604 2.87689 8.33104 3.21023C8.3977 3.55189 8.18104 3.87689 7.8477 3.95189C4.18937 4.70189 1.78937 8.2019 2.39771 11.9269C2.86437 14.8102 5.20604 17.1519 8.08937 17.6186C11.831 18.2186 15.3227 15.8102 16.0644 12.1352C16.131 11.7936 16.4644 11.5769 16.7977 11.6436C17.1394 11.7102 17.356 12.0436 17.2894 12.3769C16.4977 16.2686 13.0977 18.9602 9.2227 18.9602Z" fill="#292D32"/>
</g>
</g>
</svg>
