<svg width="36" height="36" viewBox="0 0 36 36" fill="none" xmlns="http://www.w3.org/2000/svg">
<g id="vuesax/outline/tether-(usdt)">
<g id="tether-(usdt)">
<path id="Vector" d="M18.0011 32.0991C16.5911 32.0991 15.1811 31.6191 14.1161 30.6441L3.72105 21.2091C1.90605 19.5591 1.33605 16.5441 2.43105 14.3541L6.03106 7.12406C6.93106 5.32406 9.19606 3.91406 11.2061 3.91406H24.7961C26.8061 3.91406 29.0711 5.32406 29.9711 7.12406L33.5711 14.3541C34.6661 16.5441 34.0961 19.5591 32.2811 21.2091L21.8861 30.6441C20.8211 31.6041 19.4111 32.0991 18.0011 32.0991ZM11.2061 6.14906C10.0361 6.14906 8.56606 7.06406 8.04106 8.11406L4.44107 15.3441C3.81107 16.6191 4.17106 18.5691 5.23606 19.5291L15.6311 28.9641C16.9211 30.1341 19.0961 30.1341 20.3711 28.9641L30.7661 19.5291C31.816 18.5691 32.191 16.6191 31.561 15.3441L27.9611 8.11406C27.4361 7.07906 25.9661 6.16406 24.7961 6.16406H11.2061V6.14906Z" fill="#565656"/>
<path id="Vector_2" d="M18 22.875C17.385 22.875 16.875 22.365 16.875 21.75V12.75C16.875 12.135 17.385 11.625 18 11.625C18.615 11.625 19.125 12.135 19.125 12.75V21.75C19.125 22.365 18.615 22.875 18 22.875Z" fill="#565656"/>
<path id="Vector_3" d="M24 13.875H12C11.385 13.875 10.875 13.365 10.875 12.75C10.875 12.135 11.385 11.625 12 11.625H24C24.615 11.625 25.125 12.135 25.125 12.75C25.125 13.365 24.615 13.875 24 13.875Z" fill="#565656"/>
</g>
</g>
</svg>
