<svg width="16" height="16" viewBox="0 0 16 16" fill="none" xmlns="http://www.w3.org/2000/svg">
<g id="paper-plane-top 1" clip-path="url(#clip0_621_3841)">
<path id="Vector" d="M0.116717 2.47205C-0.14195 1.76405 0.0527168 0.980049 0.613384 0.475382C1.17272 -0.0272845 1.96938 -0.140618 2.64538 0.188049L14.7054 5.81738C15.3521 6.12005 15.8147 6.67272 16.0021 7.33272H2.70072L0.154717 2.55672C0.140717 2.52938 0.12805 2.50072 0.116717 2.47205ZM2.71005 8.66672L0.20805 13.45C0.19405 13.4767 0.18205 13.5034 0.17205 13.5314C-0.0859498 14.24 0.110717 15.0227 0.671384 15.5267C1.01872 15.838 1.45738 15.9987 1.89872 15.9987C2.17138 15.9987 2.44472 15.9374 2.69938 15.8127L14.7067 10.1874C15.3554 9.88338 15.8174 9.32872 16.0034 8.66738H2.71005V8.66672Z" fill="white"/>
</g>
<defs>
<clipPath id="clip0_621_3841">
<rect width="16" height="16" fill="white"/>
</clipPath>
</defs>
</svg>
