<svg width="17" height="17" viewBox="0 0 17 17" fill="none" xmlns="http://www.w3.org/2000/svg">
<g id="paper-plane-top 1" clip-path="url(#clip0_2776_20239)">
<path id="Vector" d="M0.323748 2.71033C0.0650814 2.00233 0.259748 1.21833 0.820415 0.713663C1.37975 0.210997 2.17641 0.0976635 2.85241 0.42633L14.9124 6.05566C15.5591 6.35833 16.0217 6.911 16.2091 7.571H2.90775L0.361748 2.795C0.347748 2.76766 0.335081 2.739 0.323748 2.71033ZM2.91708 8.905L0.415081 13.6883C0.401081 13.715 0.389081 13.7417 0.379081 13.7697C0.121081 14.4783 0.317748 15.261 0.878415 15.765C1.22575 16.0763 1.66441 16.237 2.10575 16.237C2.37841 16.237 2.65175 16.1757 2.90641 16.051L14.9137 10.4257C15.5624 10.1217 16.0244 9.567 16.2104 8.90566H2.91708V8.905Z" fill="white"/>
</g>
<defs>
<clipPath id="clip0_2776_20239">
<rect width="16" height="16" fill="white" transform="translate(0.210938 0.238281)"/>
</clipPath>
</defs>
</svg>
