<svg width="20" height="20" viewBox="0 0 20 20" fill="none" xmlns="http://www.w3.org/2000/svg">
<g id="vuesax/outline/tether-(usdt)">
<g id="tether-(usdt)">
<path id="Vector" d="M10.0019 17.8341C9.21856 17.8341 8.43523 17.5674 7.84356 17.0258L2.06855 11.7841C1.06022 10.8674 0.743551 9.19245 1.35188 7.97578L3.35189 3.95911C3.85189 2.95911 5.11022 2.17578 6.22689 2.17578H13.7769C14.8936 2.17578 16.1519 2.95911 16.6519 3.95911L18.6519 7.97578C19.2602 9.19245 18.9436 10.8674 17.9352 11.7841L12.1602 17.0258C11.5686 17.5591 10.7852 17.8341 10.0019 17.8341ZM6.22689 3.41745C5.57689 3.41745 4.76022 3.92578 4.46856 4.50911L2.46856 8.52578C2.11856 9.23411 2.31856 10.3174 2.91023 10.8508L8.68522 16.0924C9.40189 16.7424 10.6102 16.7424 11.3186 16.0924L17.0936 10.8508C17.6769 10.3174 17.8852 9.23411 17.5352 8.52578L15.5352 4.50911C15.2436 3.93411 14.4269 3.42578 13.7769 3.42578H6.22689V3.41745Z" fill="black"/>
<path id="Vector_2" d="M10 12.707C9.65833 12.707 9.375 12.4237 9.375 12.082V7.08203C9.375 6.74036 9.65833 6.45703 10 6.45703C10.3417 6.45703 10.625 6.74036 10.625 7.08203V12.082C10.625 12.4237 10.3417 12.707 10 12.707Z" fill="black"/>
<path id="Vector_3" d="M13.3346 7.70703H6.66797C6.3263 7.70703 6.04297 7.4237 6.04297 7.08203C6.04297 6.74036 6.3263 6.45703 6.66797 6.45703H13.3346C13.6763 6.45703 13.9596 6.74036 13.9596 7.08203C13.9596 7.4237 13.6763 7.70703 13.3346 7.70703Z" fill="black"/>
</g>
</g>
</svg>
