<svg width="36" height="36" viewBox="0 0 36 36" fill="none" xmlns="http://www.w3.org/2000/svg">
<g id="vuesax/outline/format-circle">
<g id="format-circle">
<path id="Vector" d="M27.9781 13.425C24.9931 13.425 22.5781 10.995 22.5781 8.025C22.5781 6.81 22.9831 5.655 23.7331 4.695C23.7631 4.65 23.8081 4.62 23.8381 4.575C24.8581 3.33 26.3581 2.625 27.9781 2.625C30.9481 2.625 33.3781 5.055 33.3781 8.025C33.3781 9.69 32.6281 11.235 31.3081 12.27C30.3481 13.02 29.1931 13.425 27.9781 13.425ZM25.4281 6.18C25.0381 6.72 24.8281 7.35 24.8281 8.025C24.8281 9.765 26.2381 11.175 27.9781 11.175C28.6831 11.175 29.3581 10.935 29.9131 10.5C30.6781 9.9 31.1281 9 31.1281 8.025C31.1281 6.285 29.7181 4.875 27.9781 4.875C27.0031 4.875 26.1031 5.31 25.5181 6.075C25.4881 6.12 25.4581 6.15 25.4281 6.18Z" fill="#565656"/>
<path id="Vector_2" d="M8.025 13.425C6.81 13.425 5.655 13.02 4.695 12.27C3.375 11.235 2.625 9.69 2.625 8.025C2.625 5.055 5.055 2.625 8.025 2.625C9.69 2.625 11.235 3.375 12.27 4.695C13.02 5.655 13.425 6.81 13.425 8.025C13.425 10.995 10.995 13.425 8.025 13.425ZM8.025 4.875C6.285 4.875 4.875 6.285 4.875 8.025C4.875 9 5.31 9.9 6.09 10.5C6.645 10.935 7.32 11.175 8.025 11.175C9.765 11.175 11.175 9.765 11.175 8.025C11.175 7.32 10.935 6.645 10.5 6.09C9.9 5.31 9 4.875 8.025 4.875Z" fill="#565656"/>
<path id="Vector_3" d="M27.9781 33.3742C26.3581 33.3742 24.8581 32.6692 23.8381 31.4242C23.7931 31.3942 23.7631 31.3492 23.7331 31.3042C22.9831 30.3442 22.5781 29.1892 22.5781 27.9742C22.5781 24.9892 25.0081 22.5742 27.9781 22.5742C29.1931 22.5742 30.3481 22.9792 31.3081 23.7292C31.3531 23.7592 31.3831 23.8042 31.4281 23.8342C32.6731 24.8542 33.3781 26.3542 33.3781 27.9742C33.3781 30.9442 30.9481 33.3742 27.9781 33.3742ZM25.4281 29.8192C25.4581 29.8492 25.4881 29.8792 25.5181 29.9242C26.1031 30.6892 27.0031 31.1242 27.9781 31.1242C29.7181 31.1242 31.1281 29.7142 31.1281 27.9742C31.1281 26.9992 30.6931 26.0992 29.9281 25.5142C29.8831 25.4842 29.8531 25.4542 29.8231 25.4242C29.2831 25.0342 28.6531 24.8242 27.9781 24.8242C26.2381 24.8242 24.8281 26.2342 24.8281 27.9742C24.8281 28.6492 25.0381 29.2792 25.4281 29.8192Z" fill="#565656"/>
<path id="Vector_4" d="M8.025 33.3742C5.055 33.3742 2.625 30.9442 2.625 27.9742C2.625 26.3542 3.33 24.8542 4.575 23.8342C4.605 23.7892 4.65 23.7592 4.695 23.7292C5.655 22.9792 6.81 22.5742 8.025 22.5742C11.01 22.5742 13.425 25.0042 13.425 27.9742C13.425 29.1892 13.02 30.3442 12.27 31.3042C11.235 32.6242 9.69 33.3742 8.025 33.3742ZM6.18 25.4242C6.15 25.4542 6.12 25.4842 6.075 25.5142C5.31 26.0992 4.875 26.9992 4.875 27.9742C4.875 29.7142 6.285 31.1242 8.025 31.1242C9 31.1242 9.9 30.6892 10.5 29.9092C10.935 29.3542 11.175 28.6792 11.175 27.9742C11.175 26.2342 9.765 24.8242 8.025 24.8242C7.35 24.8242 6.72 25.0342 6.18 25.4242Z" fill="#565656"/>
<path id="Vector_5" d="M18 33.375C15.51 33.375 13.035 32.76 10.86 31.605C10.56 31.455 10.365 31.17 10.29 30.84C10.215 30.51 10.29 30.18 10.5 29.91C10.935 29.355 11.175 28.68 11.175 27.975C11.175 26.235 9.765 24.825 8.025 24.825C7.32 24.825 6.645 25.065 6.09 25.5C5.835 25.71 5.49 25.785 5.16 25.71C4.83 25.635 4.56 25.44 4.395 25.14C3.225 22.935 2.625 20.535 2.625 18C2.625 15.51 3.24 13.035 4.395 10.86C4.545 10.56 4.83 10.365 5.16 10.29C5.49 10.215 5.82 10.305 6.09 10.5C6.645 10.935 7.32 11.175 8.025 11.175C9.765 11.175 11.175 9.765 11.175 8.025C11.175 7.32 10.935 6.645 10.5 6.09C10.29 5.835 10.215 5.49 10.29 5.16C10.365 4.83 10.56 4.56 10.86 4.395C13.035 3.24 15.51 2.625 18 2.625C20.535 2.625 22.935 3.225 25.14 4.395C25.44 4.545 25.635 4.83 25.71 5.16C25.785 5.49 25.695 5.82 25.5 6.09C25.065 6.645 24.825 7.32 24.825 8.025C24.825 9.765 26.235 11.175 27.975 11.175C28.68 11.175 29.355 10.935 29.91 10.5C30.165 10.29 30.51 10.215 30.84 10.29C31.17 10.365 31.44 10.56 31.605 10.86C32.76 13.035 33.375 15.51 33.375 18C33.375 20.535 32.775 22.935 31.605 25.14C31.455 25.44 31.17 25.635 30.84 25.71C30.51 25.785 30.18 25.695 29.91 25.5C29.355 25.065 28.68 24.825 27.975 24.825C26.235 24.825 24.825 26.235 24.825 27.975C24.825 28.68 25.065 29.355 25.5 29.91C25.71 30.165 25.785 30.51 25.71 30.84C25.635 31.17 25.44 31.44 25.14 31.605C22.935 32.775 20.535 33.375 18 33.375ZM12.975 30.12C16.155 31.455 19.875 31.44 23.01 30.12C22.71 29.445 22.56 28.725 22.56 27.975C22.56 24.99 24.99 22.575 27.96 22.575C28.71 22.575 29.43 22.725 30.105 23.025C30.765 21.45 31.11 19.77 31.11 18C31.11 16.275 30.765 14.55 30.105 12.975C29.43 13.275 28.71 13.425 27.96 13.425C24.975 13.425 22.56 10.995 22.56 8.025C22.56 7.275 22.71 6.555 23.01 5.88C19.875 4.56 16.14 4.56 12.975 5.88C13.275 6.555 13.425 7.275 13.425 8.025C13.425 11.01 10.995 13.425 8.025 13.425C7.275 13.425 6.555 13.275 5.88 12.975C5.22 14.55 4.875 16.275 4.875 18C4.875 19.755 5.205 21.435 5.88 23.025C6.555 22.725 7.275 22.575 8.025 22.575C11.01 22.575 13.425 25.005 13.425 27.975C13.425 28.725 13.275 29.445 12.975 30.12Z" fill="#565656"/>
</g>
</g>
</svg>
