<svg width="15" height="15" viewBox="0 0 15 15" fill="none" xmlns="http://www.w3.org/2000/svg">
<g id="view-eye-icon">
<g id="vuesax/outline/eye">
<g id="eye">
<path id="Vector" d="M7.50312 10.2055C6.00937 10.2055 4.79688 8.99297 4.79688 7.49922C4.79688 6.00547 6.00937 4.79297 7.50312 4.79297C8.99687 4.79297 10.2094 6.00547 10.2094 7.49922C10.2094 8.99297 8.99687 10.2055 7.50312 10.2055ZM7.50312 5.73047C6.52813 5.73047 5.73438 6.52422 5.73438 7.49922C5.73438 8.47422 6.52813 9.26797 7.50312 9.26797C8.47812 9.26797 9.27187 8.47422 9.27187 7.49922C9.27187 6.52422 8.47812 5.73047 7.50312 5.73047Z" fill="#13587F"/>
<path id="Vector_2" d="M7.49687 13.1383C5.14687 13.1383 2.92812 11.7633 1.40312 9.37578C0.740625 8.34453 0.740625 6.66328 1.40312 5.62578C2.93438 3.23828 5.15312 1.86328 7.49687 1.86328C9.84062 1.86328 12.0594 3.23828 13.5844 5.62578C14.2469 6.65703 14.2469 8.33828 13.5844 9.37578C12.0594 11.7633 9.84062 13.1383 7.49687 13.1383ZM7.49687 2.80078C5.47813 2.80078 3.54688 4.01328 2.19688 6.13203C1.72813 6.86328 1.72813 8.13828 2.19688 8.86953C3.54688 10.9883 5.47813 12.2008 7.49687 12.2008C9.51562 12.2008 11.4469 10.9883 12.7969 8.86953C13.2656 8.13828 13.2656 6.86328 12.7969 6.13203C11.4469 4.01328 9.51562 2.80078 7.49687 2.80078Z" fill="#13587F"/>
</g>
</g>
</g>
</svg>
